<svg width="56" height="57" viewBox="0 0 56 57" fill="none" xmlns="http://www.w3.org/2000/svg">
<path d="M27.2324 12.2448L20.3242 19.2786C19.9002 19.7103 19.9002 20.4101 20.3242 20.8417C20.7481 21.2733 21.4354 21.2733 21.8593 20.8417L26.9145 15.6947V42.5H29.0855V15.6947L34.1407 20.8417C34.5646 21.2733 35.2519 21.2733 35.6758 20.8417C36.0998 20.4101 36.0998 19.7103 35.6758 19.2786L28.7676 12.2448C28.3437 11.8131 27.6563 11.8131 27.2324 12.2448Z" fill="black"/>
<path fill-rule="evenodd" clip-rule="evenodd" d="M55.5 28.5C55.5 43.964 43.1878 56.5 28 56.5C12.8122 56.5 0.5 43.964 0.5 28.5C0.5 13.036 12.8122 0.5 28 0.5C43.1878 0.5 55.5 13.036 55.5 28.5ZM54.0526 28.5C54.0526 43.1501 42.3885 55.0263 28 55.0263C13.6115 55.0263 1.94737 43.1501 1.94737 28.5C1.94737 13.8499 13.6115 1.97368 28 1.97368C42.3885 1.97368 54.0526 13.8499 54.0526 28.5Z" fill="black"/>
</svg>
