<svg width="69" height="69" viewBox="0 0 69 69" fill="none" xmlns="http://www.w3.org/2000/svg">
<path d="M57.4997 48.2993L55.1999 43.699H32.2001L27.5999 39.0995H9.19967V48.2993H6.8999V52.8995H62.0999V48.2993H57.4997ZM18.4001 48.2993H13.7999V43.699H18.4001V48.2993Z" fill="#035375"/>
<path d="M54.8584 40.2491L59.8002 28.3204C57.0547 27.1839 53.9779 27.451 50.984 28.8054L46.2451 40.2491H54.8584Z" fill="#035375"/>
<path d="M33.6287 40.2491H43.7565L50.5999 23.7201C43.7158 20.8677 34.7313 26.7409 30.2456 36.866L33.6287 40.2491Z" fill="#035375"/>
<path d="M28.2694 35.6495C30.387 30.9844 33.3927 27.1321 36.8068 24.5108C30.603 17.559 22.6432 14.3492 16.1006 17.0581L23.8024 35.6495H28.2694Z" fill="#035375"/>
<path d="M21.3104 35.6495L16.4949 24.0188C13.6176 22.8148 10.6796 22.6306 8.04932 23.7201L12.9911 35.6495H21.3104Z" fill="#035375"/>
</svg>
