<svg width="69" height="69" viewBox="0 0 69 69" fill="none" xmlns="http://www.w3.org/2000/svg">
<path d="M41.5617 42.7477H8.73281C6.63047 42.7477 4.74375 43.6102 3.34219 44.9578C1.94062 46.3055 1.07812 48.1922 1.07812 50.2945C1.07812 54.4453 4.52813 57.8414 8.67891 57.8414H40.4297C40.4297 57.8414 36.7102 54.068 36.6023 50.2945C36.4945 46.5211 41.5617 42.7477 41.5617 42.7477ZM7.92422 54.068C7.92422 53.0438 8.73281 52.2352 9.75703 52.2352C10.7812 52.2352 11.5898 53.0438 11.5898 54.068C11.5898 55.0922 10.7812 55.9008 9.75703 55.9008C8.78672 55.9008 7.92422 55.0922 7.92422 54.068ZM33.907 50.7258C33.907 51.75 33.0984 52.5586 32.0742 52.5586C31.05 52.5586 30.1875 51.75 30.1875 50.7258C30.1875 49.7016 30.9961 48.893 32.0203 48.893C33.0445 48.893 33.907 49.7016 33.907 50.7258ZM25.3898 48.5695C24.3656 48.5695 23.557 47.7609 23.557 46.7367C23.557 45.7125 24.3656 44.9039 25.3898 44.9039C26.4141 44.9039 27.2227 45.7125 27.2227 46.7367C27.2227 47.7609 26.4141 48.5695 25.3898 48.5695ZM27.2227 53.4211C27.2227 54.4453 26.4141 55.2539 25.3898 55.2539C24.3656 55.2539 23.557 54.4453 23.557 53.4211C23.557 52.3969 24.3656 51.5883 25.3898 51.5883C26.4141 51.5883 27.2227 52.3969 27.2227 53.4211ZM19.4602 49.5938C19.4602 50.618 18.6516 51.4266 17.6273 51.4266C16.6031 51.4266 15.7945 50.618 15.7945 49.5938C15.7945 48.5695 16.6031 47.7609 17.6273 47.7609C18.6516 47.7609 19.4602 48.5695 19.4602 49.5938ZM11.6438 46.3055C11.6438 47.3297 10.8352 48.1383 9.81094 48.1383C8.78672 48.1383 7.97813 47.3297 7.97813 46.3055C7.97813 45.2812 8.78672 44.4188 9.81094 44.4188C10.8352 44.4188 11.6438 45.2812 11.6438 46.3055ZM36.818 27.1688H15.1477C10.943 27.1688 7.54688 30.5648 7.54688 34.7156C7.54688 36.7641 8.40938 38.6508 9.81094 40.0523C11.2125 41.4 13.0992 42.2625 15.2016 42.2625H35.7938C35.7938 42.2625 32.1281 38.4891 31.9664 34.7156C31.8047 30.9422 36.818 27.1688 36.818 27.1688ZM14.2312 40.3219C13.207 40.3219 12.3984 39.5133 12.3984 38.4891C12.3984 37.4648 13.207 36.6562 14.2312 36.6562C15.2555 36.6562 16.0641 37.4648 16.0641 38.4891C16.118 39.5133 15.2555 40.3219 14.2312 40.3219ZM28.732 36.6562C29.7563 36.6562 30.5648 37.4648 30.5648 38.4891C30.5648 39.5133 29.7563 40.3219 28.732 40.3219C27.7078 40.3219 26.8992 39.5133 26.8992 38.4891C26.8453 37.4648 27.7078 36.6562 28.732 36.6562ZM25.7672 30.6727C25.7672 29.6484 26.5758 28.8398 27.6 28.8398C28.6242 28.8398 29.4328 29.6484 29.4328 30.6727C29.4328 31.6969 28.6242 32.5055 27.6 32.5055C26.5758 32.5055 25.7672 31.6969 25.7672 30.6727ZM23.8805 35.1469C23.8805 36.1711 23.0719 36.9797 22.0477 36.9797C21.0234 36.9797 20.2148 36.1711 20.2148 35.1469C20.2148 34.1227 21.0234 33.3141 22.0477 33.3141C23.0719 33.3141 23.8805 34.1227 23.8805 35.1469ZM18.3281 30.6727C18.3281 31.6969 17.5195 32.5055 16.4953 32.5055C15.4711 32.5055 14.6625 31.6969 14.6625 30.6727C14.6625 29.6484 15.4711 28.8398 16.4953 28.8398C17.5195 28.8398 18.3281 29.6484 18.3281 30.6727ZM31.8047 11.5898H21.2391C17.0344 11.5898 13.6383 14.9859 13.6383 19.1367C13.6383 21.1852 14.5008 23.1258 15.9023 24.4734C17.3039 25.8211 19.1906 26.6836 21.293 26.6836H30.7266C30.7266 26.6836 27.0609 22.9102 26.8992 19.1367C26.7914 15.3633 31.8047 11.5898 31.8047 11.5898ZM15.7406 18.4359C15.7406 17.4117 16.5492 16.6031 17.5734 16.6031C18.5977 16.6031 19.4062 17.4117 19.4062 18.4359C19.4062 19.4602 18.5977 20.2687 17.5734 20.2687C16.5492 20.2687 15.7406 19.4602 15.7406 18.4359ZM23.1797 13.2609C24.2039 13.2609 25.0125 14.0695 25.0125 15.0938C25.0125 16.118 24.2039 16.9266 23.1797 16.9266C22.1555 16.9266 21.3469 16.118 21.3469 15.0938C21.293 14.0695 22.1555 13.2609 23.1797 13.2609ZM23.1797 21.0773C24.2039 21.0773 25.0125 21.8859 25.0125 22.9102C25.0125 23.9344 24.2039 24.743 23.1797 24.743C22.1555 24.743 21.3469 23.9344 21.3469 22.9102C21.3469 21.8859 22.1555 21.0773 23.1797 21.0773Z" fill="#035375"/>
<path d="M38.0578 50.0789C38.0578 46.4133 40.9688 43.3946 44.4727 43.3946H64.0406C65.55 43.3946 66.7898 44.6883 66.7898 46.2516C66.7898 47.8688 65.55 49.1086 64.0406 49.1086H44.5266V51.3188H64.0406C66.7898 51.3188 69 49.0008 69 46.1977C69 43.3946 66.7898 41.0766 64.0406 41.0766H39.7289C36.1711 41.0766 33.3141 38.1117 33.3141 34.3922C33.3141 30.7266 36.1711 27.7617 39.7289 27.7617L59.2969 27.7078C60.8063 27.7078 62.0461 29.0016 62.0461 30.6188C62.0461 32.236 60.8063 33.5297 59.2969 33.5297H39.7828V35.7399H59.2969C62.0461 35.7399 64.2562 33.4219 64.2562 30.6188C64.2562 27.8156 62.0461 25.4977 59.2969 25.4977H34.7156C31.1578 25.4977 28.3008 22.5328 28.3008 18.8133C28.3008 15.0938 31.1578 12.1289 34.7156 12.1289H54.2836C55.793 12.1289 57.0328 13.4227 57.0328 15.0399C57.0328 16.6571 55.793 17.9508 54.2836 17.9508H34.7695V20.161H54.2836C57.0328 20.161 59.243 17.843 59.243 14.986C59.243 12.1289 57.0328 9.86487 54.2836 9.86487H21.6164C16.6031 9.86487 12.5063 14.0696 12.5063 19.2446C12.5063 21.8321 13.5844 23.9883 15.3633 25.4977C10.4039 25.6055 6.41484 29.7563 6.41484 34.8774C6.41484 37.411 7.43906 39.5672 9.21797 41.0766H9.11016C4.09687 41.1844 0 45.3891 0 50.5641C0 55.4696 3.88125 58.9735 9.21797 58.9735H67.8141V56.7633H44.4727C40.9148 56.7633 38.0578 53.7446 38.0578 50.0789ZM9.21797 56.7633C5.87578 56.7633 2.21016 54.8227 2.21016 50.5641C2.21016 46.6289 5.28281 43.3946 9.11016 43.3946H38.7586C36.9797 45.0117 35.8477 47.3836 35.8477 50.0789C35.8477 52.7203 36.9797 55.1461 38.7586 56.7633H9.21797ZM29.0016 12.2367C27.2227 13.8539 26.0906 16.2797 26.0906 18.9211C26.0906 21.5625 27.2227 23.9344 29.0016 25.6055H21.7242C18.382 25.6055 14.7164 23.6649 14.7164 19.4063C14.7164 15.4711 17.7891 12.2367 21.6164 12.2367H29.0016ZM34.0148 27.8696C32.2359 29.4867 31.1039 31.8586 31.1039 34.5C31.1039 37.1414 32.2359 39.5133 34.0148 41.1844H15.6328C12.2906 41.1844 8.625 39.2438 8.625 34.9852C8.625 31.05 11.6977 27.8696 15.525 27.8696H34.0148Z" fill="#035375"/>
</svg>
