<svg width="24" height="24" viewBox="0 0 24 24" fill="none" xmlns="http://www.w3.org/2000/svg">
<path d="M21.8333 2H3.16667C2.85725 2 2.5605 2.12292 2.34171 2.34171C2.12292 2.5605 2 2.85725 2 3.16667V21.8333C2 22.1428 2.12292 22.4395 2.34171 22.6583C2.5605 22.8771 2.85725 23 3.16667 23H13.2175V14.88H10.4898V11.7008H13.2175V9.3675C13.2175 6.655 14.8742 5.17683 17.3008 5.17683C18.1163 5.1745 18.933 5.2165 19.745 5.30167V8.125H18.0708C16.7548 8.125 16.4982 8.75267 16.4982 9.67083V11.695H19.6447L19.2363 14.8742H16.497V23H21.8333C22.1428 23 22.4395 22.8771 22.6583 22.6583C22.8771 22.4395 23 22.1428 23 21.8333V3.16667C23 2.85725 22.8771 2.5605 22.6583 2.34171C22.4395 2.12292 22.1428 2 21.8333 2Z" fill="white"/>
</svg>
