<svg width="69" height="54" viewBox="0 0 69 54" fill="none" xmlns="http://www.w3.org/2000/svg">
<path d="M35.598 53.1466C23.1607 53.1466 13.042 42.8489 13.042 30.1917C13.042 17.5345 23.1607 7.23682 35.598 7.23682C48.0352 7.23682 58.154 17.5345 58.154 30.1917C58.154 42.8489 48.0352 53.1466 35.598 53.1466ZM35.598 9.406C24.3564 9.406 15.2112 18.7307 15.2112 30.1923C15.2112 41.6538 24.3569 50.9785 35.598 50.9785C46.8391 50.9785 55.9848 41.6538 55.9848 30.1923C55.9848 18.7307 46.8396 9.406 35.598 9.406Z" fill="#035375"/>
<path d="M35.5983 46.5142C26.7518 46.5142 19.5542 39.1921 19.5542 30.1919C19.5542 21.1917 26.7518 13.8696 35.5983 13.8696C44.4449 13.8696 51.643 21.1917 51.643 30.1919C51.643 39.1921 44.4449 46.5142 35.5983 46.5142ZM35.5983 16.0383C27.9479 16.0383 21.7239 22.3874 21.7239 30.1919C21.7239 37.9959 27.9479 44.3455 35.5983 44.3455C43.2492 44.3455 49.4738 37.9959 49.4738 30.1919C49.4738 22.3879 43.2492 16.0383 35.5983 16.0383Z" fill="#035375"/>
<path d="M26.9309 30.1917H24.7622C24.7622 24.116 29.6235 19.1738 35.5984 19.1738V21.3425C30.8191 21.3425 26.9309 25.3121 26.9309 30.1917Z" fill="#035375"/>
<path d="M6.43479 53.2465C4.46182 53.2465 2.85595 51.6201 2.85595 49.6213V21.2412C1.07866 20.1098 0 18.1551 0 15.9892V2.04199H2.16865V15.9892C2.16865 17.5573 3.03061 18.9535 4.41762 19.6338L5.02514 19.9319V49.6213C5.02514 50.4239 5.65746 51.0773 6.43425 51.0773C7.21158 51.0773 7.8439 50.4239 7.8439 49.6213V19.6742L8.31342 19.3508C9.41095 18.5966 10.0659 17.34 10.0659 15.9897V2.04199H12.2346V15.9897C12.2346 17.8543 11.4141 19.6052 10.0125 20.7809V49.6213C10.0131 51.6201 8.40776 53.2465 6.43479 53.2465Z" fill="#035375"/>
<path d="M7.20136 2.04199H5.03271V12.0648H7.20136V2.04199Z" fill="#035375"/>
<path d="M65.4202 53.2464C63.4472 53.2464 61.8413 51.6821 61.8413 49.7576V33.0483C61.1594 29.781 60.7993 26.0497 60.7993 22.2466C60.7993 11.6163 63.5221 2.79989 67.4212 0.807516L69.0001 0V49.7576C69.0001 51.6815 67.3942 53.2464 65.4202 53.2464ZM66.8309 4.2656C64.7474 7.2547 62.969 13.8501 62.969 22.246C62.969 25.944 63.3211 29.5622 63.9879 32.7103L64.0116 32.9351V49.7571C64.0116 50.4848 64.6439 51.0767 65.4207 51.0767C66.198 51.0767 66.8309 50.4843 66.8309 49.7571V4.2656Z" fill="#035375"/>
<path d="M68.8668 30.8618H63.1533V33.031H68.8668V30.8618Z" fill="#035375"/>
</svg>
