<svg width="69" height="69" viewBox="0 0 69 69" fill="none" xmlns="http://www.w3.org/2000/svg">
<path d="M60.5924 48.3039C55.9568 48.3039 52.1855 45.1682 52.1855 41.3132C52.1855 37.4583 55.9568 34.322 60.5924 34.322C65.2281 34.322 69 37.4578 69 41.3132C69.0006 45.1682 65.2287 48.3039 60.5924 48.3039ZM60.5924 36.4853C57.3752 36.4853 54.7583 38.6518 54.7583 41.3138C54.7583 43.9757 57.3752 46.1417 60.5924 46.1417C63.8103 46.1417 66.4279 43.9752 66.4279 41.3138C66.4279 38.6513 63.8103 36.4853 60.5924 36.4853Z" fill="#035375"/>
<path d="M13.6534 35.4416C7.49345 23.3006 13.418 8.05133 22.4085 4.54682C22.8227 4.3851 23.3088 4.42014 23.6839 4.64008C24.0584 4.85894 24.2675 5.22928 24.2322 5.61256C23.4576 13.9288 24.6266 23.14 27.6123 32.2487L25.1319 32.8233C22.3193 24.2424 21.0791 15.5617 21.5114 7.57047C15.2745 11.8491 10.6869 24.0801 16.0203 34.5931L13.6534 35.4416Z" fill="#035375"/>
<path d="M36.6375 29.8628C34.0257 21.0846 29.8126 12.9753 24.115 5.76036C23.8559 5.4326 23.8296 5.01212 24.0458 4.66334C24.2619 4.31456 24.687 4.09085 25.1545 4.08115C34.8003 3.88277 49.1747 16.621 50.8221 26.8057L48.2725 27.0974C46.9348 18.8253 36.0488 8.30585 27.7432 6.50859C32.8547 13.4308 36.6824 21.0996 39.1339 29.3383L36.6375 29.8628Z" fill="#035375"/>
<path d="M39.2563 50.7884L33.8037 33.3994L31.3153 33.9508L36.7679 51.3398L39.2563 50.7884Z" fill="#035375"/>
<path d="M10.897 68.9999L8.75195 67.8053L15.5474 59.1823L8.82698 46.9411L11.1631 46.0349L18.1842 58.8239C18.3715 59.164 18.3349 59.5618 18.0887 59.874L10.897 68.9999Z" fill="#035375"/>
<path d="M55.4817 68.6775L53.1232 61.1467H16.7651V58.9834H54.1152C54.6988 58.9834 55.2105 59.3144 55.3592 59.7899L57.9698 68.1271L55.4817 68.6775Z" fill="#035375"/>
<path d="M24.6352 4.11908L23.3452 0L20.8571 0.550638L22.1471 4.66972L24.6352 4.11908Z" fill="#035375"/>
<path d="M55.7207 60.0944H53.148V56.2115H21.6969C21.1794 56.2115 20.7125 55.9517 20.5118 55.5511C20.4977 55.5226 20.4811 55.4832 20.4663 55.4449L13.4785 42.7201L15.8146 41.814L22.5331 54.0487H54.4344C55.1443 54.0487 55.7207 54.5328 55.7207 55.1301V60.0944Z" fill="#035375"/>
<path d="M8.57875 40.3063C5.76491 40.3063 3.20565 39.0196 1.89876 36.9484L1.90838 36.9436L1.89171 36.9166L1.97251 36.8762L1.89171 36.9166L1.76474 36.7177L1.76602 36.7172L1.75384 36.6989L1.75512 36.6956C1.05102 34.9841 0.568153 33.2493 0.321269 31.5394C-1.97636 18.8523 8.29724 5.87795 23.2264 2.65052L23.227 2.65268L23.4591 2.60955L23.4579 2.60524C25.7343 2.13032 28.0986 1.88989 30.4854 1.88989C43.5132 1.88989 55.7798 8.91616 60.3148 18.9758C60.9689 20.3041 61.5082 21.7849 61.9077 23.353L61.9295 23.3892L62.0404 23.8436L62.0366 24.0657C62.0872 26.9352 59.771 29.4677 56.4044 30.1944C54.2363 30.6586 51.9028 30.2715 50.1239 29.2084C49.1306 30.8828 47.3024 32.1577 45.0753 32.6375C42.8354 33.1232 40.3723 32.7216 38.5107 31.5965C37.545 33.3377 35.6834 34.6628 33.3634 35.1641C31.1113 35.6477 28.7149 35.2655 26.8777 34.1803C25.8927 35.8789 24.0459 37.1738 21.779 37.6627C19.5526 38.1419 17.1915 37.7684 15.3652 36.7129C14.4309 38.3711 12.6527 39.6319 10.4448 40.1079C9.8369 40.24 9.20846 40.3063 8.57875 40.3063ZM4.16369 35.9328L4.17074 35.935C5.0172 37.2767 6.74796 38.1441 8.57875 38.1441C8.993 38.1441 9.40597 38.1004 9.80676 38.0136C11.744 37.5964 13.1779 36.2633 13.4594 34.6175L15.7249 34.0838C17.0228 35.4062 19.1416 35.9981 21.1416 35.5684C23.1545 35.1339 24.6737 33.7593 25.0103 32.0655L27.2785 31.562C28.5764 32.9081 30.7143 33.5027 32.7253 33.0698C34.7959 32.6229 36.3221 31.2019 36.6126 29.451L38.907 28.9416C39.9042 30.0343 41.4714 30.686 43.0989 30.686C43.5491 30.686 43.998 30.6381 44.4347 30.5432C46.4175 30.1157 47.9276 28.754 48.2842 27.0726L50.569 26.602C51.7617 27.9007 53.8541 28.5093 55.7676 28.0996C57.9421 27.6306 59.4972 25.9341 59.4651 24.0668L59.4658 24.0371L59.4299 23.9525C59.0592 22.4576 58.5533 21.0507 57.9242 19.7725C53.7451 10.5043 42.468 4.05265 30.486 4.05265C28.3077 4.05265 26.1524 4.27205 24.0792 4.70439L23.9221 4.73458L23.9215 4.73296L23.8933 4.73997C10.1806 7.70486 0.76053 19.5936 2.86963 31.2478C3.09727 32.8192 3.53141 34.3846 4.16369 35.9328Z" fill="#035375"/>
</svg>
