<svg width="60" height="60" viewBox="0 0 60 60" fill="none" xmlns="http://www.w3.org/2000/svg">
<path d="M46.6631 53.5312C46.5073 53.222 46.2689 52.962 45.9743 52.78C45.6798 52.598 45.3406 52.501 44.9943 52.5H43.1193V37.5H39.3693V52.5H9.36933V36.6937L17.8256 31.6125C18.1011 31.4454 18.3289 31.2101 18.487 30.9292C18.6451 30.6484 18.7281 30.3316 18.7281 30.0094C18.7281 29.6871 18.6451 29.3703 18.487 29.0895C18.3289 28.8087 18.1011 28.5734 17.8256 28.4062L9.36933 23.3063V7.5H24.3693V3.75H28.1193V0H1.86933C1.54971 0.000967254 1.23564 0.0836233 0.95695 0.240118C0.678262 0.396614 0.444205 0.621752 0.277007 0.894154C0.109809 1.16656 0.0150201 1.47718 0.00164312 1.79652C-0.0117338 2.11586 0.0567449 2.43332 0.200576 2.71875L2.07558 6.46875C2.23139 6.77796 2.46978 7.03799 2.76433 7.22002C3.05888 7.40204 3.39807 7.49895 3.74433 7.5H5.61933V24.375C5.61938 24.7004 5.70412 25.0202 5.86521 25.3029C6.02629 25.5856 6.25818 25.8215 6.53808 25.9875L13.2318 30L6.53808 34.0125C6.25818 34.1784 6.02629 34.4144 5.86521 34.6971C5.70412 34.9798 5.61938 35.2996 5.61933 35.625V52.5H3.74433C3.39807 52.501 3.05888 52.598 2.76433 52.78C2.46978 52.962 2.23139 53.222 2.07558 53.5312L0.200576 57.2812C0.0567449 57.5667 -0.0117338 57.8841 0.00164312 58.2035C0.0150201 58.5228 0.109809 58.8334 0.277007 59.1058C0.444205 59.3782 0.678262 59.6034 0.95695 59.7599C1.23564 59.9164 1.54971 59.999 1.86933 60H46.8693C47.1889 59.999 47.503 59.9164 47.7817 59.7599C48.0604 59.6034 48.2944 59.3782 48.4616 59.1058C48.6288 58.8334 48.7236 58.5228 48.737 58.2035C48.7504 57.8841 48.6819 57.5667 48.5381 57.2812L46.6631 53.5312Z" fill="#035375"/>
<path d="M26.2441 28.125H22.4941V31.875H26.2441V28.125Z" fill="#035375"/>
<path d="M33.7441 43.125H29.9941V46.875H33.7441V43.125Z" fill="#035375"/>
<path d="M26.2441 43.125H22.4941V46.875H26.2441V43.125Z" fill="#035375"/>
<path d="M18.7441 43.125H14.9941V46.875H18.7441V43.125Z" fill="#035375"/>
<path d="M22.4941 35.625H18.7441V39.375H22.4941V35.625Z" fill="#035375"/>
<path d="M29.9941 35.625H26.2441V39.375H29.9941V35.625Z" fill="#035375"/>
<path d="M43.1192 0C39.7816 0 36.519 0.989701 33.7439 2.84395C30.9688 4.6982 28.8059 7.33371 27.5287 10.4172C26.2515 13.5007 25.9173 16.8937 26.5684 20.1671C27.2195 23.4406 28.8267 26.4474 31.1867 28.8074C33.5467 31.1674 36.5536 32.7746 39.827 33.4258C43.1004 34.0769 46.4934 33.7427 49.5769 32.4655C52.6604 31.1882 55.296 29.0253 57.1502 26.2502C59.0045 23.4752 59.9942 20.2126 59.9942 16.875C59.9942 12.3995 58.2163 8.10725 55.0516 4.94257C51.8869 1.7779 47.5947 0 43.1192 0V0ZM43.1192 30C40.5233 30 37.9857 29.2302 35.8273 27.788C33.6689 26.3458 31.9866 24.296 30.9932 21.8977C29.9998 19.4994 29.7399 16.8604 30.2463 14.3144C30.7528 11.7684 32.0028 9.42979 33.8384 7.59422C35.6739 5.75866 38.0126 4.50862 40.5586 4.00219C43.1046 3.49576 45.7436 3.75568 48.1419 4.74908C50.5402 5.74248 52.59 7.42475 54.0322 9.58314C55.4744 11.7415 56.2442 14.2791 56.2442 16.875C56.2442 20.356 54.8614 23.6944 52.3999 26.1558C49.9385 28.6172 46.6001 30 43.1192 30Z" fill="#035375"/>
<path d="M44.9942 9.375H41.2442V16.875C41.2427 17.1218 41.29 17.3664 41.3833 17.5948C41.4767 17.8233 41.6141 18.031 41.7879 18.2062L47.4129 23.8312L50.0567 21.1875L44.9942 16.1062V9.375Z" fill="#035375"/>
</svg>
