<svg width="69" height="69" viewBox="0 0 69 69" fill="none" xmlns="http://www.w3.org/2000/svg">
<path fill-rule="evenodd" clip-rule="evenodd" d="M34.6732 59.1824C34.6289 59.1824 34.5846 59.1824 34.5402 59.1779C33.776 59.1195 33.211 58.567 33.283 57.9426C33.6984 54.4298 34.9335 51.4246 36.9384 49.0079C39.7518 45.6253 44.0939 43.3479 49.8372 42.2383C50.5848 42.0946 51.3381 42.4674 51.5153 43.0783C51.6925 43.6848 51.2328 44.2957 50.4796 44.4394C47.7824 44.9605 45.4286 45.7646 43.4847 46.8382C41.7955 47.7681 40.3666 48.927 39.2423 50.2746C37.47 52.4039 36.4288 54.9823 36.0467 58.1627C35.9913 58.7422 35.3821 59.1824 34.6732 59.1824Z" fill="#035375"/>
<path fill-rule="evenodd" clip-rule="evenodd" d="M39.619 63.8861C38.8547 63.8861 38.2344 63.3875 38.2234 62.7676C38.2234 62.7451 38.2234 62.6373 38.2234 62.534C38.2234 62.4621 38.2234 62.3947 38.2234 62.3768C38.1791 58.4686 39.0043 55.0187 40.7433 51.8383C42.5156 48.604 45.2792 45.5539 49.1948 42.5173C49.7542 42.086 50.6348 42.0995 51.1665 42.5532C51.6982 43.0069 51.6816 43.7211 51.1222 44.1524C47.4724 46.9824 44.9082 49.7989 43.291 52.7592C41.7181 55.6386 40.9704 58.7786 41.0092 62.3588C41.0092 62.3768 41.0092 62.4531 41.0092 62.534C41.0092 62.6238 41.0092 62.7181 41.0092 62.7451C41.0202 63.3695 40.3999 63.8816 39.6301 63.8906C39.6301 63.8861 39.6246 63.8861 39.619 63.8861Z" fill="#035375"/>
<path fill-rule="evenodd" clip-rule="evenodd" d="M61.1795 68.998C60.9691 68.998 60.7586 68.962 60.5592 68.8812C52.1852 65.5121 42.9971 63.6928 33.9807 63.6254C24.7039 63.5536 15.9257 65.3594 8.58733 68.8452C7.92273 69.1597 7.06983 68.98 6.67661 68.4409C6.28892 67.9019 6.51045 67.2101 7.17506 66.8912C11.1239 65.0135 15.466 63.5895 20.0794 62.6596C24.5267 61.7612 29.2122 61.3255 34.0084 61.3614C43.4457 61.4333 53.0548 63.3334 61.7998 66.8507C62.4921 67.1293 62.769 67.8076 62.4312 68.3691C62.1875 68.7689 61.6946 68.998 61.1795 68.998Z" fill="#035375"/>
<path fill-rule="evenodd" clip-rule="evenodd" d="M34.6674 52.8175C34.0526 52.8175 33.4932 52.4896 33.3216 51.9865C33.1388 51.4519 32.9616 50.9174 32.7788 50.3514C31.6656 46.9778 30.4084 43.1596 28.0657 39.7186C25.4128 35.8285 21.7686 33.0255 16.917 31.1478C16.2191 30.8782 15.9256 30.2044 16.2579 29.6384C16.5902 29.0724 17.4209 28.8344 18.1188 29.1039C23.5076 31.1927 27.5617 34.3057 30.5081 38.6226C33.0169 42.3061 34.324 46.2681 35.476 49.7674C35.6587 50.3289 35.836 50.8635 36.0132 51.3891C36.2181 51.991 35.7806 52.6154 35.0384 52.7816C34.9166 52.8041 34.7892 52.8175 34.6674 52.8175Z" fill="#035375"/>
<path fill-rule="evenodd" clip-rule="evenodd" d="M34.6675 52.8177C34.5512 52.8177 34.4349 52.8042 34.3186 52.7818C33.5709 52.6245 33.1223 52.0091 33.3161 51.4027C33.4269 51.0523 33.5376 50.693 33.654 50.3291C35.8804 43.2047 38.9265 33.4434 51.2272 28.4663C51.9139 28.1878 52.7557 28.4124 53.0991 28.9739C53.4425 29.531 53.1656 30.2138 52.4733 30.4923C47.5442 32.4868 43.8224 35.4964 41.0975 39.6965C38.7049 43.3845 37.4588 47.369 36.3622 50.8863C36.2459 51.2502 36.1351 51.614 36.0244 51.9644C35.8582 52.4763 35.2933 52.8177 34.6675 52.8177Z" fill="#035375"/>
<path fill-rule="evenodd" clip-rule="evenodd" d="M34.6676 63.63C33.8978 63.63 33.272 63.1224 33.272 62.498V18.6196C33.272 17.9952 33.8978 17.4875 34.6676 17.4875C35.4375 17.4875 36.0633 17.9952 36.0633 18.6196V62.4937C36.0633 63.1224 35.4375 63.63 34.6676 63.63Z" fill="#035375"/>
<path fill-rule="evenodd" clip-rule="evenodd" d="M50.1195 38.9598C47.655 38.9598 44.8802 38.3444 41.5461 37.3921C41.0311 37.2438 40.6656 36.8665 40.6212 36.4263C40.2945 33.466 40.6212 30.8381 41.5905 28.619C42.4932 26.5527 43.9553 24.8232 45.9381 23.4711C47.3614 22.5008 49.0562 21.7282 50.978 21.1712C52.7059 20.6725 54.6222 20.3446 56.6769 20.1964C60.2436 19.9448 64.2534 20.2503 67.9696 21.0633C68.4792 21.1757 68.8668 21.5081 68.9721 21.9258C69.0773 22.3436 68.8835 22.7748 68.4736 23.0399C64.846 25.3668 63.406 28.0306 62.7913 29.1716C62.6971 29.3512 62.6196 29.4905 62.5476 29.6073C62.5199 29.6522 62.3371 29.9666 62.2153 30.1733C62.0879 30.3889 61.9716 30.5866 61.9439 30.6315C59.1304 35.2763 56.5606 37.6436 53.3373 38.542C52.3016 38.8295 51.2438 38.9598 50.1195 38.9598ZM43.3295 35.4964C47.1953 36.5565 50.0974 37.0507 52.4179 36.4038C54.877 35.7165 56.976 33.6906 59.4295 29.6342C59.4572 29.5893 59.568 29.4006 59.6843 29.1985C59.8836 28.8616 60.0055 28.655 60.0387 28.5966C60.0775 28.5337 60.1439 28.4079 60.2215 28.2641C60.7421 27.2984 61.9661 25.0343 64.6632 22.7793C62.0325 22.393 59.352 22.2762 56.9095 22.4514C53.149 22.7164 49.97 23.6688 47.7214 25.2006C44.4704 27.4196 42.9917 30.8787 43.3295 35.4964Z" fill="#035375"/>
<path fill-rule="evenodd" clip-rule="evenodd" d="M18.8722 38.9371C17.7479 38.9371 16.6845 38.8068 15.6655 38.5238C12.4422 37.6254 9.86684 35.2581 7.0589 30.6088C7.0312 30.5639 6.93705 30.4066 6.78752 30.1461C6.66567 29.9395 6.48291 29.634 6.45522 29.5846C6.38322 29.4678 6.30568 29.3285 6.21153 29.1489C5.59677 28.0124 4.15126 25.3441 0.52918 23.0172C0.113804 22.7521 -0.080039 22.3209 0.030728 21.9031C0.135957 21.4854 0.523642 21.1485 1.03317 21.0407C7.80103 19.5583 17.1442 19.4145 23.0647 23.4439C25.0475 24.7915 26.5096 26.5255 27.4123 28.5918C28.3815 30.8109 28.7083 33.4388 28.3815 36.3991C28.3317 36.8393 27.9717 37.2166 27.4566 37.3649C24.1115 38.3217 21.3368 38.9371 18.8722 38.9371ZM4.32295 22.7613C7.02013 25.0163 8.2441 27.2803 8.76471 28.2461C8.84225 28.3899 8.9087 28.5112 8.94747 28.5785C8.9807 28.6369 9.10254 28.8436 9.30193 29.176C9.42377 29.3826 9.53454 29.5713 9.56223 29.6117C12.0213 33.6726 14.1148 35.6985 16.5738 36.3858C18.8888 37.0326 21.7964 36.5385 25.6622 35.4784C26.0001 30.8605 24.5213 27.3971 21.2703 25.1825C19.0217 23.6507 15.8427 22.6984 12.0822 22.4334C9.63423 22.2582 6.95367 22.375 4.32295 22.7613Z" fill="#035375"/>
<path fill-rule="evenodd" clip-rule="evenodd" d="M34.668 27.6263C34.4686 27.6263 34.2693 27.5903 34.0865 27.523C30.7358 26.2697 28.2325 24.7109 26.6485 22.8826C24.9482 20.9151 24.3335 18.7005 24.8264 16.2928C25.2861 14.0512 26.726 11.6749 29.0964 9.22673C30.553 7.72637 31.6718 6.07778 32.4139 4.33935C32.9733 3.03664 33.2668 1.93159 33.2724 1.14099C33.2724 1.1365 33.2724 1.132 33.2724 1.12751C33.2724 0.503113 33.8982 0 34.668 0C35.4378 0 36.0637 0.507604 36.0637 1.132C36.0637 1.13649 36.0637 1.14099 36.0637 1.14548C36.0637 1.88667 36.3184 2.89739 36.7947 4.06982C37.5424 5.91157 38.7055 7.64551 40.2396 9.23122C42.0783 11.1269 43.3632 12.9911 44.0555 14.7655C44.7533 16.5533 44.8641 18.2783 44.3878 19.8864C43.9115 21.4901 42.8537 22.968 41.242 24.2797C39.7245 25.515 37.7086 26.6066 35.2551 27.5274C35.0668 27.5946 34.8674 27.6263 34.668 27.6263ZM34.6625 5.92056C33.8317 7.58712 32.7019 9.16833 31.2896 10.6238C29.2072 12.771 27.9611 14.8014 27.5789 16.6611C27.2079 18.4579 27.662 20.1155 28.9303 21.5754C30.1376 22.9725 32.065 24.1988 34.668 25.2365C36.5566 24.4863 38.0963 23.6238 39.2648 22.676C40.5054 21.6608 41.3196 20.5423 41.674 19.3474C42.4272 16.8138 41.2088 13.8805 38.0464 10.6193C36.6286 9.16833 35.4988 7.58712 34.6625 5.92056Z" fill="#035375"/>
<path fill-rule="evenodd" clip-rule="evenodd" d="M34.6677 59.1828C33.9588 59.1828 33.3496 58.747 33.2831 58.1586C32.9065 54.9827 31.8598 52.3997 30.0875 50.2705C28.9688 48.9229 27.5399 47.7639 25.8451 46.834C23.9012 45.7649 21.5474 44.9564 18.8502 44.4353C18.1025 44.2915 17.6373 43.6806 17.8145 43.0742C17.9918 42.4678 18.745 42.0904 19.4926 42.2342C25.247 43.3482 29.5891 45.6257 32.4025 49.0082C34.413 51.4249 35.6425 54.4301 36.0579 57.9429C36.1299 58.5628 35.5705 59.1199 34.8007 59.1783C34.7563 59.1783 34.712 59.1828 34.6677 59.1828Z" fill="#035375"/>
<path fill-rule="evenodd" clip-rule="evenodd" d="M29.7216 63.7248C29.716 63.7248 29.7105 63.7248 29.7049 63.7248C28.9351 63.7158 28.3204 63.2037 28.3259 62.5793C28.3259 62.5568 28.3259 62.5074 28.3259 62.458V62.3637C28.3647 58.7835 27.6225 55.6435 26.0441 52.7641C24.4269 49.7993 21.8626 46.9873 18.2129 44.1573C17.6535 43.726 17.6369 43.0073 18.1686 42.5581C18.7002 42.1044 19.5864 42.0909 20.1402 42.5221C24.0558 45.5588 26.825 48.6089 28.5917 51.8432C30.3308 55.0236 31.156 58.469 31.1117 62.3816V62.467C31.1117 62.5209 31.1117 62.5793 31.1117 62.6062C31.1062 63.2261 30.4803 63.7248 29.7216 63.7248Z" fill="#035375"/>
</svg>
