<svg width="24" height="24" viewBox="0 0 24 24" fill="none" xmlns="http://www.w3.org/2000/svg">
<path d="M22.3158 8.89247V17.895C22.3158 18.7325 21.9901 19.5357 21.4102 20.128C20.8303 20.7202 20.0438 21.0529 19.2237 21.0529H5.61847C4.7984 21.0529 4.01191 20.7202 3.43202 20.128C2.85214 19.5357 2.52637 18.7325 2.52637 17.895V8.89247L12.1069 14.6499C12.2021 14.7073 12.3106 14.7375 12.4211 14.7375C12.5316 14.7375 12.6401 14.7073 12.7353 14.6499L22.3158 8.89247ZM19.2237 4.63184C19.9846 4.63171 20.7188 4.91808 21.2858 5.43614C21.8529 5.9542 22.213 6.66759 22.2973 7.43984L12.4211 13.3729L2.54492 7.43984C2.62922 6.66759 2.98935 5.9542 3.5564 5.43614C4.12346 4.91808 4.85763 4.63171 5.61847 4.63184H19.2237Z" fill="white"/>
</svg>
