<svg width="69" height="69" viewBox="0 0 69 69" fill="none" xmlns="http://www.w3.org/2000/svg">
<path d="M63.48 39.9924C63.48 39.9924 63.48 39.8544 63.48 39.7716V31.74C63.48 31.374 63.3346 31.023 63.0758 30.7642C62.817 30.5054 62.466 30.36 62.1 30.36H54.4548C53.7512 29.5449 53.1997 28.61 52.8264 27.6H62.1C62.466 27.6 62.817 27.4546 63.0758 27.1958C63.3346 26.937 63.48 26.586 63.48 26.22V6.90002C63.48 6.53402 63.3346 6.18301 63.0758 5.92421C62.817 5.66541 62.466 5.52002 62.1 5.52002H34.5C34.134 5.52002 33.783 5.66541 33.5242 5.92421C33.2654 6.18301 33.12 6.53402 33.12 6.90002V26.22C33.12 26.586 33.2654 26.937 33.5242 27.1958C33.783 27.4546 34.134 27.6 34.5 27.6H43.7736C43.4003 28.61 42.8488 29.5449 42.1452 30.36H22.08V20.7C22.08 20.334 21.9346 19.983 21.6758 19.7242C21.417 19.4654 21.066 19.32 20.7 19.32H16.56V17.94C16.56 17.574 16.4146 17.223 16.1558 16.9642C15.897 16.7054 15.546 16.56 15.18 16.56H9.66002C9.29402 16.56 8.94301 16.7054 8.68421 16.9642C8.42541 17.223 8.28002 17.574 8.28002 17.94V30.36H6.90002C6.53402 30.36 6.18301 30.5054 5.92421 30.7642C5.66541 31.023 5.52002 31.374 5.52002 31.74V39.7716C5.52002 39.7716 5.52002 39.9096 5.52002 39.9924C5.52002 40.0752 5.52002 39.9924 5.52002 40.1856V64.86C5.52002 65.226 5.66541 65.577 5.92421 65.8358C6.18301 66.0946 6.53402 66.24 6.90002 66.24C7.26602 66.24 7.61703 66.0946 7.87583 65.8358C8.13463 65.577 8.28002 65.226 8.28002 64.86V63.48H26.22C26.586 63.48 26.937 63.3346 27.1958 63.0758C27.4546 62.817 27.6 62.466 27.6 62.1V51.2532C27.6 51.2532 27.6 51.1152 27.6 51.06C27.6 51.0048 27.6 50.922 27.6 50.8668V41.4H60.72V64.86C60.72 65.226 60.8654 65.577 61.1242 65.8358C61.383 66.0946 61.734 66.24 62.1 66.24C62.466 66.24 62.817 66.0946 63.0758 65.8358C63.3346 65.577 63.48 65.226 63.48 64.86V40.1856C63.48 40.1856 63.48 40.0476 63.48 39.9924ZM60.72 8.28002V19.32H35.88V8.28002H60.72ZM35.88 22.08H60.72V24.84H35.88V22.08ZM46.6164 27.6H49.9836C50.2268 28.561 50.5884 29.4881 51.06 30.36H45.54C46.0116 29.4881 46.3732 28.561 46.6164 27.6ZM19.32 22.08V30.36H16.56V22.08H19.32ZM11.04 19.32H13.8V30.36H11.04V19.32ZM24.84 49.68H8.28002V41.4H24.84V49.68ZM8.28002 60.72V52.44H24.84V60.72H8.28002ZM8.28002 38.64V33.12H60.72V38.64H8.28002Z" fill="white"/>
</svg>
