<svg width="55" height="69" viewBox="0 0 55 69" fill="none" xmlns="http://www.w3.org/2000/svg">
<path d="M54.0619 15.8125C53.779 15.3157 53.4001 14.8801 52.9473 14.5311C52.4945 14.1821 51.9768 13.9265 51.4244 13.7794C50.8719 13.6323 50.2957 13.5964 49.7293 13.674C49.1629 13.7516 48.6175 13.941 48.125 14.2312L39.5 19.2337V7.1875C39.5 6.80625 39.3485 6.44062 39.079 6.17103C38.8094 5.90145 38.4437 5.75 38.0625 5.75H26.5625V1.4375C26.5625 1.05625 26.4111 0.690618 26.1415 0.421034C25.8719 0.15145 25.5062 0 25.125 0L19.375 0C18.9938 0 18.6281 0.15145 18.3585 0.421034C18.0889 0.690618 17.9375 1.05625 17.9375 1.4375V5.75H6.4375C6.05625 5.75 5.69062 5.90145 5.42103 6.17103C5.15145 6.44062 5 6.80625 5 7.1875V43.125H2.125C1.74375 43.125 1.37812 43.2765 1.10853 43.546C0.838951 43.8156 0.6875 44.1813 0.6875 44.5625V50.3125C0.6875 50.6937 0.838951 51.0594 1.10853 51.329C1.37812 51.5985 1.74375 51.75 2.125 51.75H7.4725L6.4375 56.0625H5C4.61875 56.0625 4.25312 56.214 3.98353 56.4835C3.71395 56.7531 3.5625 57.1188 3.5625 57.5C3.5625 57.8812 3.71395 58.2469 3.98353 58.5165C4.25312 58.786 4.61875 58.9375 5 58.9375H5.67563L3.5625 67.2175C3.50918 67.4327 3.50639 67.6574 3.55433 67.8739C3.60228 68.0904 3.69966 68.2929 3.83886 68.4655C3.97807 68.6381 4.15532 68.7762 4.35675 68.8689C4.55819 68.9616 4.77834 69.0065 5 69H10.75C11.0784 69.0096 11.4001 68.9064 11.6617 68.7076C11.9232 68.5088 12.1088 68.2264 12.1875 67.9075L14.3869 58.9375H17.9375V63.25C17.9375 63.6312 18.0889 63.9969 18.3585 64.2665C18.6281 64.536 18.9938 64.6875 19.375 64.6875H25.125C25.5062 64.6875 25.8719 64.536 26.1415 64.2665C26.4111 63.9969 26.5625 63.6312 26.5625 63.25V58.9375H30.1131L32.3125 67.9075C32.3912 68.2264 32.5768 68.5088 32.8383 68.7076C33.0999 68.9064 33.4216 69.0096 33.75 69C42.7775 69 41.6994 70.4375 38.8244 58.9375H39.5C39.8812 58.9375 40.2469 58.786 40.5165 58.5165C40.786 58.2469 40.9375 57.8812 40.9375 57.5C40.9375 57.1188 40.786 56.7531 40.5165 56.4835C40.2469 56.214 39.8812 56.0625 39.5 56.0625H38.0625L36.9844 51.75H42.375C42.7562 51.75 43.1219 51.5985 43.3915 51.329C43.661 51.0594 43.8125 50.6937 43.8125 50.3125V44.5625C43.8125 44.1813 43.661 43.8156 43.3915 43.546C43.1219 43.2765 42.7562 43.125 42.375 43.125H39.5V29.1956L52.4375 21.7063C53.2137 21.7063 55.7581 18.7738 54.0619 15.8125ZM20.8125 2.875H23.6875V5.75H20.8125V2.875ZM10.4337 51.75H13.2225L12.1875 56.0625H9.3125L10.4337 51.75ZM9.62875 66.125H6.84L8.63687 58.9375H11.4256L9.62875 66.125ZM15.0625 56.0625L16.1406 51.75H17.9375V56.0625H15.0625ZM23.6875 56.0625H20.8125V51.75H23.6875V56.0625ZM23.6875 61.8125H20.8125V58.9375H23.6875V61.8125ZM26.5625 56.0625V51.75H28.3162L29.4375 56.0625H26.5625ZM37.66 66.125H34.8713L33.0744 58.9375H35.8631L37.66 66.125ZM35.1875 56.0625H32.3125L31.2344 51.75H34.0231L35.1875 56.0625ZM40.9375 48.875H3.5625V46H40.9375V48.875ZM36.625 43.125H7.875V8.625H36.625V20.9013C32.0106 23.5606 29.15 24.6819 27.2956 28.4625C23.2994 26.5362 21.0138 30.6619 19.145 34.6006C19.0439 34.8108 18.9955 35.0425 19.004 35.2756C19.0124 35.5087 19.0775 35.7362 19.1935 35.9386C19.3095 36.1409 19.4731 36.312 19.67 36.437C19.8669 36.5621 20.0913 36.6373 20.3237 36.6562C22.1206 36.8 26.0737 36.9869 27.5831 36.0812C28.196 35.7263 28.712 35.2258 29.0856 34.6241C29.4591 34.0224 29.6787 33.338 29.725 32.6313C32.0274 32.8187 34.3294 32.2646 36.2944 31.05C36.7975 30.7481 36.625 29.3969 36.625 43.125ZM32.2119 26.8669L33.5631 29.1956C32.3911 29.6833 31.1199 29.8853 29.8544 29.785C30.4121 28.6482 31.2177 27.6511 32.2119 26.8669ZM26.1456 33.5944C25.0358 33.8608 23.892 33.9577 22.7531 33.8819C23.2531 32.8547 23.913 31.9134 24.7081 31.0931C24.8724 30.9987 25.0536 30.9376 25.2414 30.9133C25.4293 30.8889 25.6201 30.9018 25.803 30.9512C25.9858 31.0006 26.1572 31.0855 26.3072 31.2011C26.4573 31.3167 26.5831 31.4608 26.6775 31.625C26.7719 31.7892 26.833 31.9705 26.8574 32.1583C26.8817 32.3462 26.8688 32.537 26.8194 32.7198C26.77 32.9027 26.6851 33.0741 26.5695 33.2241C26.4539 33.3742 26.3099 33.5 26.1456 33.5944ZM51 19.2194L36.05 27.8444L34.6125 25.3431L49.5625 16.7181C49.8942 16.5275 50.288 16.4764 50.6573 16.5762C51.0267 16.6759 51.3412 16.9183 51.5319 17.25C51.7225 17.5817 51.7736 17.9755 51.6738 18.3448C51.5741 18.7142 51.3317 19.0288 51 19.2194Z" fill="#035375"/>
<path d="M23.6873 18.6875C24.2623 18.6875 24.2767 18.6875 24.2767 19.2913C24.2767 20.5994 24.9379 22.2382 26.2317 22.2382C26.513 22.2342 26.787 22.1478 27.0197 21.9896C27.2524 21.8313 27.4336 21.6083 27.5407 21.3481C27.6478 21.0879 27.6763 20.802 27.6224 20.5258C27.5686 20.2497 27.4349 19.9953 27.2379 19.7944C26.9648 19.5213 27.5685 18.0838 26.2317 16.7469C24.8948 15.41 23.4573 15.9994 23.1698 15.7263C22.8823 15.4532 23.5004 14.0157 22.1635 12.6788C21.8886 12.4433 21.5348 12.3202 21.173 12.3342C20.8112 12.3482 20.4681 12.4982 20.2121 12.7542C19.956 13.0102 19.8061 13.3534 19.7921 13.7151C19.7781 14.0769 19.9012 14.4307 20.1367 14.7057C20.3379 14.9213 19.7342 18.6875 23.6873 18.6875Z" fill="#035375"/>
<path d="M19.6339 22.3244C19.3646 22.0567 19.0002 21.9064 18.6205 21.9064C18.2407 21.9064 17.8764 22.0567 17.607 22.3244C17.3914 22.5256 13.6251 21.9363 13.6251 25.875C13.6251 26.45 13.6251 26.4644 13.0214 26.4644C10.4195 26.4644 9.3989 28.3475 10.4914 29.4256C10.7607 29.6934 11.1251 29.8436 11.5048 29.8436C11.8846 29.8436 12.2489 29.6934 12.5183 29.4256C12.7914 29.1525 14.2289 29.7563 15.5658 28.4194C16.9026 27.0825 16.3133 25.645 16.5864 25.3575C16.8595 25.07 16.8308 25.2713 17.1326 25.2713C19.6914 25.2713 20.7264 23.4025 19.6339 22.3244Z" fill="#035375"/>
</svg>
