<svg width="70" height="69" viewBox="0 0 70 69" fill="none" xmlns="http://www.w3.org/2000/svg">
<path d="M35.0002 18.4003C26.1102 18.4003 18.9004 25.6101 18.9004 34.5C18.9004 43.3928 26.1102 50.5998 35.0002 50.5998C43.8901 50.5998 51.0999 43.3928 51.0999 34.5C51.0999 25.6101 43.8901 18.4003 35.0002 18.4003ZM35.0002 46.0003C28.648 46.0003 23.4999 40.8522 23.4999 34.5C23.4999 28.1479 28.648 22.9998 35.0002 22.9998C41.3495 22.9998 46.5004 28.1472 46.5004 34.5C46.5004 40.8529 41.3495 46.0003 35.0002 46.0003Z" fill="#035375"/>
<path d="M37.2997 6.90002H32.7002V13.8H37.2997V6.90002Z" fill="#035375"/>
<path d="M37.2997 55.2H32.7002V62.0999H37.2997V55.2Z" fill="#035375"/>
<path d="M14.2999 32.2002H7.3999V36.7997H14.2999V32.2002Z" fill="#035375"/>
<path d="M62.6002 32.2002H55.7002V36.7997H62.6002V32.2002Z" fill="#035375"/>
<path d="M7.40062 10.1523L18.7339 21.4888L21.9891 18.2345L10.6559 6.89798L7.40062 10.1523Z" fill="#035375"/>
<path d="M48.0108 50.7643L59.3467 62.1001L62.6 58.8468L51.2641 47.5109L48.0108 50.7643Z" fill="#035375"/>
<path d="M10.6542 62.0979L21.9907 50.7646L18.7364 47.5094L7.39994 58.8427L10.6542 62.0979Z" fill="#035375"/>
<path d="M51.2638 21.4878L62.5996 10.152L59.3463 6.89867L48.0105 18.2345L51.2638 21.4878Z" fill="#035375"/>
</svg>
