<svg width="118" height="127" viewBox="0 0 118 127" fill="none" xmlns="http://www.w3.org/2000/svg">
<path d="M92.3554 11.4455C92.659 11.4455 92.9501 11.3249 93.1648 11.1103C93.3794 10.8956 93.5 10.6045 93.5 10.3009V6.13675C93.4996 5.85808 93.3972 5.5892 93.2121 5.38087C93.027 5.17254 92.7721 5.03917 92.4954 5.00593C92.4895 5.00593 92.4843 4.99874 92.4784 4.99809L46.1915 0.00654094C46.1509 0.00214536 46.1101 -3.81094e-05 46.0692 5.03229e-07H42.8645C42.7567 -3.54297e-05 42.6495 0.0151576 42.546 0.0451286L25.326 5.03733C25.3208 5.03733 25.3169 5.04518 25.3116 5.04714C25.0774 5.1177 24.872 5.26171 24.7259 5.45791C24.5797 5.65411 24.5005 5.8921 24.5 6.13675V10.3009C24.5 10.6045 24.6206 10.8956 24.8352 11.1103C25.0499 11.3249 25.341 11.4455 25.6445 11.4455H41.2484L41.0842 15.0427H39.888C39.5919 15.0426 39.3073 15.1573 39.094 15.3627C38.8807 15.5681 38.7553 15.8481 38.7441 16.144L37.0103 61.8057H34.8193C34.5157 61.8057 34.2246 61.9263 34.0099 62.1409C33.7953 62.3556 33.6747 62.6467 33.6747 62.9502V66.7109H25.6445C25.341 66.7109 25.0499 66.8315 24.8352 67.0461C24.6206 67.2608 24.5 67.5519 24.5 67.8554C24.5 68.159 24.6206 68.4501 24.8352 68.6648C25.0499 68.8794 25.341 69 25.6445 69H92.3554C92.659 69 92.9501 68.8794 93.1648 68.6648C93.3794 68.4501 93.5 68.159 93.5 67.8554C93.5 67.5519 93.3794 67.2608 93.1648 67.0461C92.9501 66.8315 92.659 66.7109 92.3554 66.7109H89.6648V63.2714C89.6648 62.9678 89.5442 62.6767 89.3295 62.462C89.1149 62.2474 88.8238 62.1268 88.5202 62.1268H82.5359V58.6879C82.5359 58.3844 82.4153 58.0933 82.2006 57.8786C81.986 57.664 81.6949 57.5434 81.3913 57.5434H75.407V54.1045C75.407 53.8009 75.2864 53.5098 75.0717 53.2952C74.8571 53.0805 74.566 52.9599 74.2624 52.9599H60.0046C59.701 52.9599 59.4099 53.0805 59.1953 53.2952C58.9806 53.5098 58.86 53.8009 58.86 54.1045V58.6886C58.86 58.9921 58.9806 59.2833 59.1953 59.4979C59.4099 59.7125 59.701 59.8331 60.0046 59.8331H65.9889V62.1275H60.0046C59.701 62.1275 59.4099 62.2481 59.1953 62.4627C58.9806 62.6773 58.86 62.9685 58.86 63.272V66.7116H55.2576V62.9502C55.2576 62.6467 55.1371 62.3556 54.9224 62.1409C54.7078 61.9263 54.4167 61.8057 54.1131 61.8057H51.9228L50.1883 16.144C50.1771 15.8481 50.0517 15.5681 49.8384 15.3627C49.6251 15.1573 49.3405 15.0426 49.0444 15.0427H47.8488L47.6847 11.4455H74.3154V29.6491H72.6391C72.3664 29.649 72.1026 29.7464 71.8952 29.9236C71.6879 30.1008 71.5507 30.3463 71.5083 30.6157L70.8543 34.7583C70.8124 35.0236 70.8651 35.2952 71.0034 35.5255L72.3114 37.7054C72.4131 37.8748 72.5569 38.015 72.7288 38.1125C72.9007 38.2099 73.0949 38.2612 73.2925 38.2613H74.3147V40.0592C74.3147 40.3628 74.4353 40.6539 74.65 40.8686C74.8646 41.0832 75.1557 41.2038 75.4593 41.2038C75.5589 41.2038 75.6568 41.2296 75.7434 41.2786C75.8301 41.3277 75.9026 41.3983 75.9539 41.4837C76.0051 41.5691 76.0334 41.6663 76.036 41.7659C76.0385 41.8655 76.0152 41.964 75.9684 42.0519C75.9216 42.1398 75.8528 42.2141 75.7687 42.2675C75.6847 42.3209 75.5882 42.3517 75.4888 42.3567C75.3893 42.3618 75.2902 42.3411 75.2012 42.2965C75.1121 42.2519 75.0361 42.1851 74.9805 42.1024C74.8974 41.9756 74.7899 41.8666 74.6643 41.7817C74.5386 41.6968 74.3974 41.6377 74.2487 41.6078C74.1 41.578 73.9469 41.578 73.7983 41.6078C73.6496 41.6376 73.5083 41.6967 73.3827 41.7816C73.257 41.8664 73.1495 41.9754 73.0663 42.1022C72.9832 42.229 72.926 42.3711 72.8982 42.5201C72.8704 42.6692 72.8725 42.8223 72.9044 42.9705C72.9362 43.1188 72.9972 43.2592 73.0838 43.3837C73.3322 43.7527 73.6631 44.0589 74.0503 44.2779C74.4376 44.4969 74.8704 44.6228 75.3147 44.6455C75.759 44.6682 76.2025 44.5871 76.61 44.4087C77.0175 44.2303 77.3779 43.9595 77.6626 43.6177C77.9473 43.2758 78.1485 42.8724 78.2503 42.4393C78.3521 42.0063 78.3516 41.5555 78.2489 41.1226C78.1462 40.6898 77.9442 40.2868 77.6588 39.9455C77.3733 39.6043 77.0124 39.3342 76.6045 39.1567V38.2607H77.6267C77.8243 38.2605 78.0185 38.2092 78.1904 38.1118C78.3623 38.0144 78.5061 37.8742 78.6078 37.7047L79.9158 35.5249C80.0541 35.2946 80.1068 35.023 80.0649 34.7577L79.4109 30.6151C79.3685 30.3456 79.2313 30.1002 79.024 29.923C78.8167 29.7457 78.5529 29.6484 78.2801 29.6484H76.6045V11.4455H92.3554ZM77.7386 34.7041L76.9779 35.9716H73.9419L73.1813 34.7041L73.6175 31.9382H77.303L77.7386 34.7041ZM41.5433 4.9922H33.7028L41.6486 2.68871L41.5433 4.9922ZM43.9358 2.2891H45.0071L45.1084 4.9922H43.8265L43.9358 2.2891ZM47.3903 4.9922L47.2733 2.42579L71.0688 4.9922H47.3903ZM26.7884 7.2813H91.2102V9.1564H26.7891L26.7884 7.2813ZM48.0646 20.5581L46.4479 19.4161L47.9803 18.3337L48.0646 20.5581ZM42.4792 19.4161L40.8664 20.5548L40.9508 18.3363L42.4792 19.4161ZM44.4636 20.8177L47.5068 22.9669L44.4636 25.91L41.4197 22.9669L44.4636 20.8177ZM42.818 27.5019L40.5191 29.7256L40.682 25.4378L42.818 27.5019ZM46.2275 45.7493L48.9345 43.4406L49.1163 48.2196L46.2275 45.7493ZM48.6664 50.8468L44.4642 55.0221L40.2621 50.8468L44.4642 47.2581L48.6664 50.8468ZM44.4649 38.1135L48.1883 41.0671L44.4649 44.245L40.7415 41.0651L44.4649 38.1135ZM40.1829 38.5883L40.3255 34.8303L42.6231 36.6524L40.1829 38.5883ZM46.3066 36.6524L48.6075 34.827L48.7507 38.5909L46.3066 36.6524ZM44.4649 35.1913L41.0031 32.4444L44.4649 29.0971L47.9273 32.4444L44.4649 35.1913ZM42.7023 45.7493L39.818 48.213L39.9992 43.4386L42.7023 45.7493ZM42.8409 56.6323L39.3667 60.0843L39.6192 53.4322L42.8409 56.6323ZM44.4649 58.2458L48.045 61.8031H40.8834L44.4649 58.2458ZM46.0888 56.6323L49.3145 53.4276L49.5676 60.0882L46.0888 56.6323ZM48.4139 29.7282L46.1117 27.5045L48.251 25.4358L48.4139 29.7282ZM44.4642 18.0185L43.493 17.3318H45.4354L44.4642 18.0185ZM87.375 66.7116H75.4063V64.4166H87.375V66.7116ZM61.1485 55.2497H73.1172V57.5447H61.1485V55.2497ZM68.2774 59.8338H80.2461V62.1281H68.2774V59.8338ZM61.1485 64.4172H73.1172V66.7122H61.1485V64.4172ZM52.9685 66.7109H35.9638V64.0948H52.9685V66.7109ZM45.5578 15.0427H43.3753L43.5394 11.4455H45.3962L45.5578 15.0427Z" fill="#035375"/>
<path d="M14.1484 92.3906C14.0078 93.5938 13.5625 94.5234 12.8125 95.1797C12.0677 95.8307 11.0755 96.1562 9.83594 96.1562C8.49219 96.1562 7.41406 95.6745 6.60156 94.7109C5.79427 93.7474 5.39062 92.4583 5.39062 90.8438V89.75C5.39062 88.6927 5.57812 87.763 5.95312 86.9609C6.33333 86.1589 6.86979 85.5443 7.5625 85.1172C8.25521 84.6849 9.05729 84.4688 9.96875 84.4688C11.1771 84.4688 12.1458 84.8073 12.875 85.4844C13.6042 86.1562 14.0286 87.0885 14.1484 88.2812H12.6406C12.5104 87.375 12.2266 86.7188 11.7891 86.3125C11.3568 85.9062 10.75 85.7031 9.96875 85.7031C9.01042 85.7031 8.25781 86.0573 7.71094 86.7656C7.16927 87.474 6.89844 88.4818 6.89844 89.7891V90.8906C6.89844 92.125 7.15625 93.1068 7.67188 93.8359C8.1875 94.5651 8.90885 94.9297 9.83594 94.9297C10.6693 94.9297 11.3073 94.7422 11.75 94.3672C12.1979 93.987 12.4948 93.3281 12.6406 92.3906H14.1484ZM22.2578 88.7188H19.4219V96H17.9766V88.7188H15.1953V87.5469H22.2578V88.7188ZM30.8047 91.8672C30.8047 93.1536 30.5104 94.1901 29.9219 94.9766C29.3333 95.763 28.5365 96.1562 27.5312 96.1562C26.5052 96.1562 25.6979 95.8307 25.1094 95.1797V99.25H23.6641V87.5469H24.9844L25.0547 88.4844C25.6432 87.7552 26.4609 87.3906 27.5078 87.3906C28.5234 87.3906 29.3255 87.7734 29.9141 88.5391C30.5078 89.3047 30.8047 90.3698 30.8047 91.7344V91.8672ZM29.3594 91.7031C29.3594 90.75 29.1562 89.9974 28.75 89.4453C28.3438 88.8932 27.7865 88.6172 27.0781 88.6172C26.2031 88.6172 25.5469 89.0052 25.1094 89.7812V93.8203C25.5417 94.5911 26.2031 94.9766 27.0938 94.9766C27.7865 94.9766 28.3359 94.7031 28.7422 94.1562C29.1536 93.6042 29.3594 92.7865 29.3594 91.7031ZM32.2656 91.6953C32.2656 90.8672 32.4271 90.1224 32.75 89.4609C33.0781 88.7995 33.5312 88.2891 34.1094 87.9297C34.6927 87.5703 35.3568 87.3906 36.1016 87.3906C37.2526 87.3906 38.1823 87.7891 38.8906 88.5859C39.6042 89.3828 39.9609 90.4427 39.9609 91.7656V91.8672C39.9609 92.6901 39.8021 93.4297 39.4844 94.0859C39.1719 94.737 38.7214 95.2448 38.1328 95.6094C37.5495 95.974 36.8776 96.1562 36.1172 96.1562C34.9714 96.1562 34.0417 95.7578 33.3281 94.9609C32.6198 94.1641 32.2656 93.1094 32.2656 91.7969V91.6953ZM33.7188 91.8672C33.7188 92.8047 33.9349 93.5573 34.3672 94.125C34.8047 94.6927 35.388 94.9766 36.1172 94.9766C36.8516 94.9766 37.4349 94.6901 37.8672 94.1172C38.2995 93.5391 38.5156 92.7318 38.5156 91.6953C38.5156 90.7682 38.2943 90.0182 37.8516 89.4453C37.4141 88.8672 36.8307 88.5781 36.1016 88.5781C35.388 88.5781 34.8125 88.862 34.375 89.4297C33.9375 89.9974 33.7188 90.8099 33.7188 91.8672ZM47.2422 87.5469H48.6875V96H47.2422V89.8359L43.3438 96H41.8984V87.5469H43.3438V93.7188L47.2422 87.5469ZM57.2891 88.7188H54.4531V96H53.0078V88.7188H50.2266V87.5469H57.2891V88.7188ZM61.5781 96.1562C60.4323 96.1562 59.5 95.7812 58.7812 95.0312C58.0625 94.276 57.7031 93.2682 57.7031 92.0078V91.7422C57.7031 90.9036 57.862 90.1562 58.1797 89.5C58.5026 88.8385 58.9505 88.3229 59.5234 87.9531C60.1016 87.5781 60.7266 87.3906 61.3984 87.3906C62.4974 87.3906 63.3516 87.7526 63.9609 88.4766C64.5703 89.2005 64.875 90.237 64.875 91.5859V92.1875H59.1484C59.1693 93.0208 59.4115 93.6953 59.875 94.2109C60.3438 94.7214 60.9375 94.9766 61.6562 94.9766C62.1667 94.9766 62.599 94.8724 62.9531 94.6641C63.3073 94.4557 63.6172 94.1797 63.8828 93.8359L64.7656 94.5234C64.0573 95.612 62.9948 96.1562 61.5781 96.1562ZM61.3984 88.5781C60.8151 88.5781 60.3255 88.7917 59.9297 89.2188C59.5339 89.6406 59.2891 90.2344 59.1953 91H63.4297V90.8906C63.388 90.1562 63.1901 89.5885 62.8359 89.1875C62.4818 88.7812 62.0026 88.5781 61.3984 88.5781ZM73.4844 87.5469V96H72.0312V88.7422H69.1562L68.9844 91.9062C68.8906 93.3594 68.6458 94.3984 68.25 95.0234C67.8594 95.6484 67.237 95.974 66.3828 96H65.8047V94.7266L66.2188 94.6953C66.6875 94.6432 67.0234 94.3724 67.2266 93.8828C67.4297 93.3932 67.5599 92.487 67.6172 91.1641L67.7734 87.5469H73.4844ZM77.3828 90.4609H79.5781C80.5365 90.4714 81.2943 90.7214 81.8516 91.2109C82.4089 91.7005 82.6875 92.3646 82.6875 93.2031C82.6875 94.0469 82.401 94.724 81.8281 95.2344C81.2552 95.7448 80.4844 96 79.5156 96H75.9375V87.5469H77.3828V90.4609ZM77.3828 91.6406V94.8203H79.5312C80.0729 94.8203 80.4922 94.6823 80.7891 94.4062C81.0859 94.125 81.2344 93.7422 81.2344 93.2578C81.2344 92.7891 81.0885 92.4062 80.7969 92.1094C80.5104 91.8073 80.1068 91.651 79.5859 91.6406H77.3828ZM91.3984 96H89.9531V92.3906H86.0703V96H84.6172V87.5469H86.0703V91.2109H89.9531V87.5469H91.3984V96ZM95.3047 90.4609H97.5C98.4583 90.4714 99.2161 90.7214 99.7734 91.2109C100.331 91.7005 100.609 92.3646 100.609 93.2031C100.609 94.0469 100.323 94.724 99.75 95.2344C99.1771 95.7448 98.4062 96 97.4375 96H93.8594V87.5469H95.3047V90.4609ZM103.625 96H102.172V87.5469H103.625V96ZM95.3047 91.6406V94.8203H97.4531C97.9948 94.8203 98.4141 94.6823 98.7109 94.4062C99.0078 94.125 99.1562 93.7422 99.1562 93.2578C99.1562 92.7891 99.0104 92.4062 98.7188 92.1094C98.4323 91.8073 98.0286 91.651 97.5078 91.6406H95.3047ZM109.656 96.1562C108.51 96.1562 107.578 95.7812 106.859 95.0312C106.141 94.276 105.781 93.2682 105.781 92.0078V91.7422C105.781 90.9036 105.94 90.1562 106.258 89.5C106.581 88.8385 107.029 88.3229 107.602 87.9531C108.18 87.5781 108.805 87.3906 109.477 87.3906C110.576 87.3906 111.43 87.7526 112.039 88.4766C112.648 89.2005 112.953 90.237 112.953 91.5859V92.1875H107.227C107.247 93.0208 107.49 93.6953 107.953 94.2109C108.422 94.7214 109.016 94.9766 109.734 94.9766C110.245 94.9766 110.677 94.8724 111.031 94.6641C111.385 94.4557 111.695 94.1797 111.961 93.8359L112.844 94.5234C112.135 95.612 111.073 96.1562 109.656 96.1562ZM109.477 88.5781C108.893 88.5781 108.404 88.7917 108.008 89.2188C107.612 89.6406 107.367 90.2344 107.273 91H111.508V90.8906C111.466 90.1562 111.268 89.5885 110.914 89.1875C110.56 88.7812 110.081 88.5781 109.477 88.5781ZM25.1719 116.398H24.1172V120H22.6641V111.547H24.1172V115.125H25.0625L27.9062 111.547H29.6562L26.3125 115.609L29.9375 120H28.1016L25.1719 116.398ZM30.625 115.695C30.625 114.867 30.7865 114.122 31.1094 113.461C31.4375 112.799 31.8906 112.289 32.4688 111.93C33.0521 111.57 33.7161 111.391 34.4609 111.391C35.612 111.391 36.5417 111.789 37.25 112.586C37.9635 113.383 38.3203 114.443 38.3203 115.766V115.867C38.3203 116.69 38.1615 117.43 37.8438 118.086C37.5312 118.737 37.0807 119.245 36.4922 119.609C35.9089 119.974 35.237 120.156 34.4766 120.156C33.3307 120.156 32.401 119.758 31.6875 118.961C30.9792 118.164 30.625 117.109 30.625 115.797V115.695ZM32.0781 115.867C32.0781 116.805 32.2943 117.557 32.7266 118.125C33.1641 118.693 33.7474 118.977 34.4766 118.977C35.2109 118.977 35.7943 118.69 36.2266 118.117C36.6589 117.539 36.875 116.732 36.875 115.695C36.875 114.768 36.6536 114.018 36.2109 113.445C35.7734 112.867 35.1901 112.578 34.4609 112.578C33.7474 112.578 33.1719 112.862 32.7344 113.43C32.2969 113.997 32.0781 114.81 32.0781 115.867ZM45 118.086L47.875 111.547H49.6797V120H48.2344V113.852L45.5 120H44.5L41.7109 113.719V120H40.2656V111.547H42.1406L45 118.086ZM58.9219 120H57.4766V112.742H53.5859V120H52.1328V111.547H58.9219V120ZM66.4609 120C66.3776 119.833 66.3099 119.536 66.2578 119.109C65.5859 119.807 64.7839 120.156 63.8516 120.156C63.0182 120.156 62.3333 119.922 61.7969 119.453C61.2656 118.979 61 118.38 61 117.656C61 116.776 61.3333 116.094 62 115.609C62.6719 115.12 63.6146 114.875 64.8281 114.875H66.2344V114.211C66.2344 113.706 66.0833 113.305 65.7812 113.008C65.4792 112.706 65.0339 112.555 64.4453 112.555C63.9297 112.555 63.4974 112.685 63.1484 112.945C62.7995 113.206 62.625 113.521 62.625 113.891H61.1719C61.1719 113.469 61.3203 113.062 61.6172 112.672C61.9193 112.276 62.3255 111.964 62.8359 111.734C63.3516 111.505 63.9167 111.391 64.5312 111.391C65.5052 111.391 66.2682 111.635 66.8203 112.125C67.3724 112.609 67.6589 113.279 67.6797 114.133V118.023C67.6797 118.799 67.7786 119.417 67.9766 119.875V120H66.4609ZM64.0625 118.898C64.5156 118.898 64.9453 118.781 65.3516 118.547C65.7578 118.312 66.0521 118.008 66.2344 117.633V115.898H65.1016C63.3307 115.898 62.4453 116.417 62.4453 117.453C62.4453 117.906 62.5964 118.26 62.8984 118.516C63.2005 118.771 63.5885 118.898 64.0625 118.898ZM76.8516 120H75.4062V116.391H71.5234V120H70.0703V111.547H71.5234V115.211H75.4062V111.547H76.8516V120ZM84.6484 111.547H86.0938V120H84.6484V113.836L80.75 120H79.3047V111.547H80.75V117.719L84.6484 111.547ZM93.8828 111.547H95.3281V120H93.8828V113.836L89.9844 120H88.5391V111.547H89.9844V117.719L93.8828 111.547Z" fill="black"/>
</svg>
