<svg width="24" height="24" viewBox="0 0 24 24" fill="none" xmlns="http://www.w3.org/2000/svg">
<path d="M23.1866 4.68177L19.626 8.24235C18.6265 9.24182 17.006 9.24182 16.0065 8.24235L15.4495 7.68528C15.0012 7.23805 14.6897 6.67229 14.5515 6.05432C13.3446 6.03177 11.9797 6.23699 10.8124 6.99435C10.0953 7.52733 9.41821 8.11203 8.78646 8.74377C8.25277 9.27714 7.75236 9.8428 7.28806 10.4375C6.37826 11.6599 6.13817 13.1432 6.16245 14.4433C6.78043 14.5815 7.3462 14.893 7.79342 15.3413L8.35048 15.8983C9.34995 16.8978 9.34995 18.5183 8.35048 19.5178L4.7899 23.0784C4.12357 23.7447 3.04324 23.7447 2.37696 23.0784L1.76567 22.4669C0.98201 21.6833 0.580854 20.6626 0.559994 19.6356C0.359322 17.4688 0.774307 15.0836 1.76013 12.7376C2.41104 11.1887 3.30471 9.67625 4.3931 8.27047C4.40684 8.2521 4.41987 8.23349 4.43379 8.21516L4.43538 8.21638C4.99107 7.50351 5.59019 6.8256 6.22934 6.1865C6.8899 5.52546 7.59173 4.90698 8.3306 4.3348L8.32348 4.32538C8.44658 4.23204 8.57214 4.14199 8.70002 4.05533C11.806 1.75799 15.3166 0.467283 18.5835 0.46747C18.7743 0.467518 18.9645 0.472956 19.1537 0.481815C20.3705 0.332237 21.6411 0.723314 22.5752 1.65739L23.1866 2.26878C23.8529 2.93511 23.8529 4.01544 23.1866 4.68177Z" fill="white"/>
</svg>
