<svg width="69" height="69" viewBox="0 0 69 69" fill="none" xmlns="http://www.w3.org/2000/svg">
<path d="M41.4001 32.2002H32.9683L27.6001 48.3H34.5001L29.8999 62.1L43.6999 43.6997H36.7999L41.4001 32.2002Z" fill="#035375"/>
<path d="M50.5997 25.3003C48.3489 19.8982 43.0221 16.1005 36.7997 16.1005C35.0974 16.1005 33.449 16.3434 31.8855 16.776C30.6186 11.127 25.583 6.90002 19.5497 6.90002C12.5641 6.90002 6.8999 12.5642 6.8999 19.5498C6.8999 24.188 9.40667 28.2328 13.1285 30.4339C9.51431 31.6765 6.8999 35.0658 6.8999 39.1003C6.8999 44.1807 11.0192 48.3 16.0997 48.3H22.9997V43.6998H16.0997C13.5612 43.6998 11.4994 41.636 11.4994 39.1003C11.4994 36.5638 13.5612 34.5 16.0997 34.5H22.9997C22.9997 26.879 29.1807 20.7 36.7997 20.7C42.114 20.7 46.4535 24.7386 47.0331 29.8998H50.5997C54.405 29.8998 57.4997 32.9944 57.4997 36.7998C57.4997 40.6051 54.405 43.6998 50.5997 43.6998H48.2999V48.3H50.5997C56.9518 48.3 62.0999 43.1519 62.0999 36.7998C62.0999 30.4477 56.9518 25.3003 50.5997 25.3003ZM19.7877 27.5773C19.707 27.58 19.6311 27.6 19.5497 27.6C15.1068 27.6 11.4994 23.9948 11.4994 19.5498C11.4994 15.1048 15.1068 11.4996 19.5497 11.4996C23.6821 11.4996 27.0513 14.6287 27.5095 18.6376H27.5116C24.0512 20.6752 21.3195 23.8154 19.7877 27.5773Z" fill="#035375"/>
<path d="M9.96833 52.9003L6.8999 62.1H11.7492L14.8177 52.9003H9.96833Z" fill="#035375"/>
<path d="M20.4511 52.9003L17.3848 62.1H22.2341L25.3004 52.9003H20.4511Z" fill="#035375"/>
<path d="M44.4676 52.9003L41.3999 62.1H46.2513L49.3156 52.9003H44.4676Z" fill="#035375"/>
<path d="M54.9532 52.9003L51.8848 62.1H56.732L59.8004 52.9003H54.9532Z" fill="#035375"/>
</svg>
